<svg width="12" height="12" viewBox="0 0 12 12" fill="none" xmlns="http://www.w3.org/2000/svg">
<path d="M5.91552 7.99309C5.92554 8.00589 5.93835 8.01625 5.95297 8.02337C5.96759 8.03049 5.98363 8.0342 5.9999 8.0342C6.01616 8.0342 6.0322 8.03049 6.04682 8.02337C6.06144 8.01625 6.07425 8.00589 6.08427 7.99309L7.58427 6.09532C7.63918 6.02568 7.58963 5.92255 7.4999 5.92255H6.50749V1.39041C6.50749 1.33148 6.45927 1.28326 6.40034 1.28326H5.59677C5.53784 1.28326 5.48963 1.33148 5.48963 1.39041V5.92121H4.4999C4.41016 5.92121 4.36061 6.02434 4.41552 6.09398L5.91552 7.99309ZM10.9017 7.52434H10.0981C10.0392 7.52434 9.99097 7.57255 9.99097 7.63148V9.69398H2.00882V7.63148C2.00882 7.57255 1.96061 7.52434 1.90168 7.52434H1.09811C1.03918 7.52434 0.990967 7.57255 0.990967 7.63148V10.2833C0.990967 10.5203 1.18248 10.7118 1.41954 10.7118H10.5803C10.8173 10.7118 11.0088 10.5203 11.0088 10.2833V7.63148C11.0088 7.57255 10.9606 7.52434 10.9017 7.52434Z" fill="white"/>
</svg>
