<svg width="12" height="12" viewBox="0 0 12 12" fill="none" xmlns="http://www.w3.org/2000/svg">
<path d="M4.4999 3.40193H5.48963V7.93273C5.48963 7.99166 5.53784 8.03987 5.59677 8.03987H6.40034C6.45927 8.03987 6.50748 7.99166 6.50748 7.93273V3.40193H7.4999C7.58963 3.40193 7.63918 3.2988 7.58427 3.22916L6.08427 1.33005C6.07425 1.31724 6.06144 1.30689 6.04682 1.29976C6.0322 1.29264 6.01616 1.28894 5.9999 1.28894C5.98363 1.28894 5.96759 1.29264 5.95297 1.29976C5.93835 1.30689 5.92554 1.31724 5.91552 1.33005L4.41552 3.22782C4.36061 3.2988 4.41016 3.40193 4.4999 3.40193ZM10.9017 7.53094H10.0981C10.0392 7.53094 9.99097 7.57916 9.99097 7.63809V9.70059H2.00882V7.63809C2.00882 7.57916 1.96061 7.53094 1.90168 7.53094H1.09811C1.03918 7.53094 0.990967 7.57916 0.990967 7.63809V10.2899C0.990967 10.5269 1.18248 10.7184 1.41954 10.7184H10.5803C10.8173 10.7184 11.0088 10.5269 11.0088 10.2899V7.63809C11.0088 7.57916 10.9606 7.53094 10.9017 7.53094Z" fill="white"/>
</svg>
