<svg width="64" height="64" viewBox="0 0 64 64" fill="none" xmlns="http://www.w3.org/2000/svg">
<rect x="0.5" y="0.5" width="63" height="63" rx="4.5" fill="white"/>
<path fill-rule="evenodd" clip-rule="evenodd" d="M38.133 26.668L34.879 29.922C35.583 30.5221 36.0875 31.3223 36.3255 32.2163C36.5634 33.1102 36.5235 34.0553 36.211 34.926C35.8992 35.7977 35.3291 36.5536 34.5768 37.0932C33.8245 37.6327 32.9257 37.9302 32 37.946C31.3195 37.9398 30.6488 37.7835 30.0357 37.4882C29.4226 37.193 28.8822 36.7661 28.453 36.238L25.2 39.492C26.2813 40.8052 27.7072 41.791 29.3176 42.339C30.928 42.8869 32.6592 42.9752 34.317 42.594C35.9752 42.2109 37.4938 41.373 38.7021 40.1744C39.9104 38.9758 40.7605 37.4641 41.157 35.809C41.5531 34.155 41.48 32.4232 40.946 30.8084C40.412 29.1936 39.4372 27.7598 38.133 26.668Z" fill="#4285F4"/>
<path fill-rule="evenodd" clip-rule="evenodd" d="M32 16.691C22.797 16.691 15.332 24.156 15.332 33.359C15.332 42.566 22.797 50.027 32 50.027C41.203 50.027 48.668 42.567 48.668 33.359C48.668 24.156 41.203 16.691 32 16.691ZM32 45.332C29.6509 45.3377 27.353 44.6458 25.3976 43.3441C23.4421 42.0423 21.9172 40.1894 21.016 38.02C20.1137 35.8506 19.8758 33.4622 20.3325 31.1574C20.7891 28.8527 21.9198 26.7354 23.5811 25.0739C25.2424 23.4125 27.3597 22.2817 29.6644 21.8249C31.9691 21.3681 34.3575 21.6058 36.527 22.508C38.6966 23.409 40.5497 24.9339 41.8517 26.8894C43.1536 28.8448 43.8456 31.1428 43.84 33.492C43.84 40.032 38.54 45.332 32 45.332Z" fill="#AECBFA"/>
<path fill-rule="evenodd" clip-rule="evenodd" d="M57.652 31.734L50.828 29.574C51.125 30.914 51.278 32.281 51.281 33.652C51.2777 34.6169 51.2059 35.5803 51.066 36.535H57.652C58.219 36.457 58.645 35.985 58.668 35.415V32.746C58.6572 32.4696 58.5495 32.2058 58.3637 32.0008C58.178 31.7959 57.926 31.6628 57.652 31.625M32 14.719C33.344 14.719 34.684 14.852 36 15.121L33.547 8.321C33.359 7.734 32.988 7.309 32.426 7.309H31.414C31.1394 7.32299 30.878 7.43116 30.6738 7.6153C30.4697 7.79944 30.3352 8.0483 30.293 8.32L28.16 15.094C29.4253 14.8482 30.711 14.7226 32 14.719ZM12.719 33.652C12.723 32.282 12.875 30.914 13.172 29.574L6.348 31.734C5.781 31.812 5.355 32.285 5.332 32.852V35.52C5.355 36.09 5.782 36.562 6.348 36.64H12.934C12.793 35.687 12.723 34.723 12.719 33.762" fill="#669DF6"/>
<path fill-rule="evenodd" clip-rule="evenodd" d="M32 26.668C30.2321 26.668 28.5365 27.3703 27.2864 28.6204C26.0363 29.8705 25.334 31.5661 25.334 33.334C25.334 35.1019 26.0363 36.7975 27.2864 38.0476C28.5365 39.2977 30.2321 40 32 40C32.8851 40.0153 33.7644 39.8542 34.5866 39.5261C35.4088 39.198 36.1574 38.7094 36.7887 38.0889C37.4201 37.4684 37.9215 36.7284 38.2639 35.912C38.6062 35.0956 38.7825 34.2192 38.7825 33.334C38.7825 32.4488 38.6062 31.5724 38.2639 30.756C37.9215 29.9396 37.4201 29.1996 36.7887 28.5791C36.1574 27.9586 35.4088 27.47 34.5866 27.1419C33.7644 26.8138 32.8851 26.6527 32 26.668ZM32 36.668C31.1158 36.668 30.2677 36.3167 29.6425 35.6915C29.0172 35.0662 28.666 34.2182 28.666 33.334C28.666 32.4498 29.0172 31.6018 29.6425 30.9765C30.2677 30.3513 31.1158 30 32 30C32.8836 30.0003 33.731 30.3514 34.3558 30.9762C34.9806 31.601 35.3317 32.4484 35.332 33.332C35.3364 33.7721 35.2534 34.2087 35.0878 34.6165C34.9222 35.0243 34.6774 35.3952 34.3675 35.7077C34.0576 36.0202 33.6888 36.2681 33.2824 36.4371C32.876 36.606 32.4401 36.6927 32 36.692V36.668Z" fill="#AECBFA"/>
<rect x="0.5" y="0.5" width="63" height="63" rx="4.5" stroke="#669DF6"/>
</svg>
