<svg width="64" height="64" viewBox="0 0 64 64" fill="none" xmlns="http://www.w3.org/2000/svg">
<rect x="0.5" y="0.5" width="63" height="63" rx="4.5" fill="white"/>
<path fill-rule="evenodd" clip-rule="evenodd" d="M17.945 28.879V35.895C19.0519 37.8006 20.6212 39.3964 22.508 40.535V28.88L17.945 28.879Z" fill="#AECBFA"/>
<path fill-rule="evenodd" clip-rule="evenodd" d="M26.375 22.426V42.508C27.355 42.633 28.344 42.684 29.332 42.668C30.222 42.723 31.113 42.723 32 42.668V22.426H26.375Z" fill="#669DF6"/>
<path fill-rule="evenodd" clip-rule="evenodd" d="M36.375 31.625V40.398C38.2701 39.1888 39.8287 37.5201 40.906 35.547V31.625H36.375Z" fill="#AECBFA"/>
<path fill-rule="evenodd" clip-rule="evenodd" d="M47.309 43.52L43.519 47.309C43.4127 47.4125 43.3283 47.5363 43.2707 47.673C43.2132 47.8097 43.1837 47.9566 43.184 48.105C43.184 48.406 43.304 48.695 43.52 48.906L52.96 58.348C53.395 58.778 54.098 58.778 54.535 58.348L58.348 54.535C58.778 54.098 58.778 53.395 58.348 52.961L48.906 43.52C48.696 43.305 48.406 43.184 48.106 43.184C47.805 43.184 47.516 43.304 47.309 43.52Z" fill="#4285F4"/>
<path fill-rule="evenodd" clip-rule="evenodd" d="M29.332 5.332C16.078 5.332 5.332 16.078 5.332 29.332C5.332 42.59 16.078 53.332 29.332 53.332C42.59 53.332 53.332 42.59 53.332 29.332C53.332 16.078 42.59 5.332 29.332 5.332ZM29.332 47.172C19.504 47.16 11.543 39.184 11.547 29.352C11.551 19.52 19.52 11.551 29.352 11.547C39.184 11.543 47.16 19.504 47.172 29.332C47.1763 31.676 46.7178 33.9978 45.8229 36.1643C44.928 38.3308 43.6143 40.2993 41.957 41.957C40.2993 43.6143 38.3308 44.928 36.1643 45.8229C33.9978 46.7178 31.676 47.1763 29.332 47.172Z" fill="#669DF6"/>
<rect x="0.5" y="0.5" width="63" height="63" rx="4.5" stroke="#4285F4"/>
</svg>
