<svg width="64" height="64" viewBox="0 0 64 64" fill="none" xmlns="http://www.w3.org/2000/svg">
<rect x="0.5" y="0.5" width="63" height="63" rx="4.5" fill="white"/>
<path d="M5.332 10.668H58.668V29.332H5.332V10.668Z" fill="#AECBFA"/>
<path d="M53.332 10.668H58.668V29.332H53.332V10.668Z" fill="#669DF6"/>
<path d="M58.668 10.668H53.332V29.332L58.668 10.668Z" fill="#4285F4"/>
<path d="M5.332 10.668H10.668V29.332H5.332V10.668Z" fill="#669DF6"/>
<path d="M16 18.668H32V21.332H16V18.668ZM44 16C46.21 16 48 17.79 48 20C48 22.21 46.21 24 44 24C41.79 24 40 22.21 40 20C40 17.79 41.79 16 44 16Z" fill="white"/>
<path d="M5.332 34.668H58.668V53.332H5.332V34.668Z" fill="#AECBFA"/>
<path d="M53.332 34.668H58.668V53.332H53.332V34.668Z" fill="#669DF6"/>
<path d="M58.668 34.668H53.332V53.332L58.668 34.668Z" fill="#4285F4"/>
<path d="M5.332 34.668H10.668V53.332H5.332V34.668Z" fill="#669DF6"/>
<path d="M16 42.668H32V45.332H16V42.668ZM44 40C46.21 40 48 41.79 48 44C48 46.21 46.21 48 44 48C41.79 48 40 46.21 40 44C40 41.79 41.79 40 44 40Z" fill="white"/>
<rect x="0.5" y="0.5" width="63" height="63" rx="4.5" stroke="#669DF6"/>
</svg>
