<svg width="64" height="64" viewBox="0 0 64 64" fill="none" xmlns="http://www.w3.org/2000/svg">
<rect x="0.5" y="0.5" width="63" height="63" rx="4.5" fill="white"/>
<path d="M24 24H40V40H24V24Z" fill="#AECBFA"/>
<path d="M29.332 5.332H34.668V16H29.332V5.332ZM18.668 5.332H24V16H18.668V5.332ZM40 5.332H45.332V16H40V5.332Z" fill="#669DF6"/>
<path d="M29.332 48H34.668V58.668H29.332V48ZM18.668 48H24V58.668H18.668V48ZM40 48H45.332V58.668H40V48ZM48 34.668V29.332H58.668V34.668H48ZM48 45.332V40H58.668V45.332H48ZM48 24V18.668H58.668V24H48Z" fill="#4285F4"/>
<path d="M5.332 34.668V29.332H16V34.668H5.332ZM5.332 45.332V40H16V45.332H5.332ZM5.332 24V18.668H16V24H5.332Z" fill="#669DF6"/>
<path d="M13.332 13.332V50.668H50.668V13.332H13.332ZM45.332 45.332H18.668V18.668H45.332V45.332Z" fill="#AECBFA"/>
<path d="M24 40H40L32 32L24 40Z" fill="#669DF6"/>
<path d="M32 32L40 40V24L32 32Z" fill="#4285F4"/>
<rect x="0.5" y="0.5" width="63" height="63" rx="4.5" stroke="#669DF6"/>
</svg>
