<svg width="64" height="64" viewBox="0 0 64 64" fill="none" xmlns="http://www.w3.org/2000/svg">
<rect x="0.5" y="0.5" width="63" height="63" rx="4.5" fill="white"/>
<path fill-rule="evenodd" clip-rule="evenodd" d="M39.23 23.586C39.39 23.586 39.527 23.699 39.574 23.852L39.594 23.98V26.137C39.594 26.309 39.492 26.457 39.344 26.507L39.23 26.527H37.766V30.395C37.766 30.504 37.786 30.617 37.82 30.719L37.887 30.875L47.762 49.063C48.035 49.574 48.074 50.183 47.879 50.723L47.762 50.988L44.18 57.707C44.0522 57.9516 43.8699 58.1634 43.647 58.3261C43.4242 58.4887 43.1668 58.5979 42.895 58.645L42.621 58.668H21.38C21.1062 58.6645 20.8371 58.5973 20.5937 58.4718C20.3504 58.3464 20.1396 58.166 19.978 57.945L19.821 57.707L16.239 50.988C16.1056 50.7338 16.0263 50.4547 16.0062 50.1683C15.9861 49.8819 16.0255 49.5944 16.122 49.324L16.239 49.063L26.091 30.875C26.146 30.777 26.185 30.668 26.216 30.559L26.236 30.391V26.527H24.77C24.6911 26.5265 24.6145 26.5004 24.5518 26.4526C24.489 26.4048 24.4435 26.3379 24.422 26.262L24.406 26.132V23.977C24.406 23.801 24.512 23.657 24.656 23.602L24.773 23.586H39.23ZM35.02 26.527H28.98V30.992C28.98 31.242 28.934 31.492 28.844 31.727L28.738 31.953L19.297 49.574C19.172 49.813 19.145 50.094 19.223 50.352L19.301 50.539L21.742 55.066C21.863 55.296 22.074 55.465 22.328 55.523L22.516 55.547H25.523L22.867 50.613C22.8034 50.495 22.7638 50.3656 22.7505 50.2323C22.7371 50.0989 22.7502 49.9643 22.789 49.836L22.871 49.648L25.184 45.352L42.434 45.348L41.063 42.793H34.68L33.645 40.867L40.031 40.863L38.113 37.277H31.668L30.625 35.352L37.078 35.348L35.262 31.953C35.1418 31.7329 35.0648 31.492 35.035 31.243L35.02 30.993V26.527ZM43.594 47.507H37.219L38.254 49.469L44.644 49.465L43.594 47.507ZM28.348 15.396C29.34 15.396 30.145 16.259 30.145 17.317C30.145 18.384 29.34 19.243 28.348 19.243C27.355 19.243 26.551 18.383 26.551 17.317C26.551 16.259 27.355 15.396 28.348 15.396ZM35.121 11.266C36.613 11.266 37.816 12.56 37.816 14.153C37.816 15.747 36.613 17.04 35.121 17.04C33.637 17.04 32.43 15.747 32.43 14.153C32.43 12.56 33.637 11.267 35.121 11.267V11.266ZM31.047 5.33301C32.039 5.33301 32.84 6.19601 32.84 7.25901C32.84 8.32101 32.04 9.18101 31.047 9.18101C30.055 9.18101 29.247 8.32101 29.247 7.25901C29.247 6.19601 30.055 5.33301 31.047 5.33301Z" fill="#4285F4"/>
<rect x="0.5" y="0.5" width="63" height="63" rx="4.5" stroke="#4285F4"/>
</svg>
