<svg width="64" height="64" viewBox="0 0 64 64" fill="none" xmlns="http://www.w3.org/2000/svg">
<rect x="0.5" y="0.5" width="63" height="63" rx="4.5" fill="white"/>
<path fill-rule="evenodd" clip-rule="evenodd" d="M47.602 37.867L20.453 53.547L17.84 49.067L45.012 33.359L47.602 37.867Z" fill="#AECBFA"/>
<path fill-rule="evenodd" clip-rule="evenodd" d="M20.348 48.426V17.066H25.332V44.668L20.348 48.426Z" fill="#AECBFA"/>
<path fill-rule="evenodd" clip-rule="evenodd" d="M25.492 25.84L24.801 19.547L51.973 35.199L49.387 39.679L25.492 25.84Z" fill="#AECBFA"/>
<path fill-rule="evenodd" clip-rule="evenodd" d="M38.375 27.36L24.801 19.547L25.492 25.84L29.52 28.133C30.9648 28.6485 32.5038 28.8462 34.032 28.7126C35.5602 28.579 37.0415 28.1173 38.375 27.359V27.36Z" fill="#4285F4"/>
<path fill-rule="evenodd" clip-rule="evenodd" d="M21.68 22.105C20.57 20.1832 20.1256 17.9487 20.4158 15.7484C20.706 13.5481 21.7146 11.5052 23.285 9.93699C24.8541 8.36775 26.8975 7.36054 29.0977 7.07176C31.298 6.78298 33.5321 7.2288 35.453 8.33999C37.3755 9.45022 38.8777 11.1641 39.7264 13.2155C40.5751 15.267 40.7229 17.5412 40.1467 19.6852C39.5704 21.8292 38.3026 23.723 36.5398 25.0726C34.7771 26.4222 32.6181 27.1521 30.398 27.149C28.6313 27.1408 26.8974 26.6711 25.3682 25.7863C23.839 24.9016 22.5676 23.6325 21.68 22.105ZM34.668 14.641C34.2378 13.8963 33.6195 13.2776 32.875 12.8469C32.1306 12.4162 31.2861 12.1887 30.426 12.187C29.7829 12.1836 29.1455 12.3072 28.5503 12.5505C27.955 12.7938 27.4136 13.1521 26.957 13.605C26.0383 14.5227 25.5215 15.7675 25.52 17.066C25.4535 17.9657 25.6362 18.8663 26.0482 19.6689C26.4602 20.4714 27.0855 21.1449 27.8554 21.6152C28.6252 22.0855 29.5098 22.3345 30.4119 22.3349C31.3141 22.3352 32.1988 22.0868 32.969 21.617C33.739 21.1464 34.3647 20.4729 34.7774 19.6703C35.1902 18.8678 35.3741 17.9671 35.309 17.067C35.3121 16.2161 35.091 15.3793 34.668 14.641Z" fill="#AECBFA"/>
<path fill-rule="evenodd" clip-rule="evenodd" d="M20.348 34.508V48.426L25.332 44.668V40.32C24.9954 39.0371 24.3719 37.8475 23.5086 36.8407C22.6452 35.8339 21.5645 35.0363 20.348 34.508ZM35.547 44.828L47.602 37.868L41.707 35.199L38.375 37.332C36.5166 39.4349 35.5083 42.1548 35.547 44.961V44.828Z" fill="#4285F4"/>
<path fill-rule="evenodd" clip-rule="evenodd" d="M6.691 49.867C6.0273 48.722 5.59608 47.4573 5.42206 46.1453C5.24803 44.8333 5.33461 43.4999 5.67684 42.2214C6.01908 40.943 6.61023 39.7446 7.41643 38.6951C8.22263 37.6455 9.22803 36.7653 10.375 36.105C11.5147 35.4374 12.7762 35.004 14.0855 34.8304C15.3949 34.6568 16.7257 34.7464 18 35.094C20.1483 35.6605 22.0493 36.9207 23.4077 38.6787C24.7662 40.4368 25.5059 42.5943 25.512 44.816C25.5167 47.0383 24.7869 49.1999 23.4362 50.9646C22.0854 52.7293 20.1894 53.9982 18.043 54.574C15.8966 55.151 13.6197 55.0023 11.5665 54.151C9.51342 53.2997 7.79932 51.7936 6.691 49.867ZM19.625 42.375C19.3212 41.7976 18.9019 41.2889 18.3932 40.8804C17.8845 40.4718 17.2973 40.1721 16.668 40C15.7328 39.745 14.7428 39.7743 13.8244 40.0842C12.9059 40.3941 12.1005 40.9705 11.5109 41.7399C10.9213 42.5093 10.5742 43.4368 10.5138 44.4043C10.4535 45.3718 10.6826 46.3353 11.172 47.172C11.4941 47.7271 11.9224 48.2134 12.4325 48.6029C12.9425 48.9925 13.5244 49.2777 14.1447 49.4424C14.765 49.607 15.4117 49.6479 16.0478 49.5625C16.6839 49.4772 17.297 49.2673 17.852 48.945C18.4072 48.623 18.8936 48.1947 19.2832 47.6847C19.6728 47.1746 19.9581 46.5928 20.1228 45.9724C20.2874 45.3521 20.3282 44.7053 20.2428 44.0692C20.1574 43.433 19.9475 42.82 19.625 42.265V42.375ZM38.215 48.961C37.3376 47.4307 36.876 45.6975 36.876 43.9335C36.876 42.1695 37.3376 40.4363 38.215 38.906C41 34.098 47.148 32.441 51.973 35.2C56.785 37.99 58.433 44.146 55.653 48.962C54.7677 50.4904 53.4962 51.7593 51.9659 52.6414C50.4356 53.5235 48.7003 53.9878 46.934 53.9878C45.1677 53.9878 43.4324 53.5235 41.9021 52.6414C40.3718 51.7593 39.1003 50.4904 38.215 48.962V48.961ZM51.172 41.465C50.7281 40.736 50.116 40.1239 49.387 39.68C48.2567 39.0417 46.9205 38.8739 45.6675 39.213C44.4144 39.5521 43.3452 40.3708 42.691 41.492C42.2704 42.237 42.0494 43.078 42.0494 43.9335C42.0494 44.789 42.2704 45.63 42.691 46.375C43.2322 47.3098 44.0677 48.039 45.067 48.449C46.0663 48.8589 47.1733 48.9264 48.215 48.641C48.8326 48.4762 49.4117 48.1913 49.9191 47.8025C50.4265 47.4136 50.8523 46.9286 51.172 46.375C51.5926 45.6251 51.8136 44.7798 51.8136 43.92C51.8136 43.0602 51.5926 42.2149 51.172 41.465Z" fill="#AECBFA"/>
<path fill-rule="evenodd" clip-rule="evenodd" d="M25.309 43.066C25.309 43.066 19.066 48.398 17.839 49.066L25.465 44.668C25.4524 44.1309 25.4002 43.5955 25.309 43.066ZM27.066 26.668C27.066 26.668 25.492 17.922 25.492 17.066V25.84C25.992 26.129 26.52 26.371 27.066 26.559V26.668ZM40.801 35.922C40.801 35.922 48.161 38.988 49.387 39.68L41.762 35.309C41.414 35.469 41.094 35.676 40.801 35.922Z" fill="#669DF6"/>
<rect x="0.5" y="0.5" width="63" height="63" rx="4.5" stroke="#669DF6"/>
</svg>
