<svg width="64" height="64" viewBox="0 0 64 64" fill="none" xmlns="http://www.w3.org/2000/svg">
<rect x="0.5" y="0.5" width="63" height="63" rx="4.5" fill="white"/>
<path fill-rule="evenodd" clip-rule="evenodd" d="M36.773 13.441L36.055 10.934L32.293 10.746L27.707 13.309L31.762 17.309L31.707 21.922L34.426 21.945L34.48 17.332L45.785 24.16L45.762 27.012L50.48 27.094V21.625L36.773 13.441Z" fill="#669DF6"/>
<path fill-rule="evenodd" clip-rule="evenodd" d="M32.293 10.746H32.266L28.48 11.68L27.707 13.309L13.68 21.12L13.602 26.585L18.348 26.667L18.398 23.812L29.895 17.28L29.84 21.894L32.133 21.921L32.293 10.746Z" fill="#AECBFA"/>
<path fill-rule="evenodd" clip-rule="evenodd" d="M32.293 10.746H32.266L23.172 5.332L18.535 7.867L27.707 13.309L32.293 10.746ZM45.574 40.16L34.105 46.691L34.16 42.105L29.574 42.055L29.52 46.641L31.707 53.254L35.492 52.934L36.266 50.668L50.32 42.852L50.398 37.282L45.625 37.227L45.574 40.16ZM31.707 53.254L22.48 58.426H22.348L17.922 55.786L27.227 50.559L31.707 53.254Z" fill="#669DF6"/>
<path fill-rule="evenodd" clip-rule="evenodd" d="M36.773 13.441L46.078 8.215L41.652 5.575H41.52L32.293 10.746L36.773 13.441ZM36.293 50.691L45.465 56.133L40.961 58.668H40.828L31.707 53.254L36.293 50.691Z" fill="#4285F4"/>
<path fill-rule="evenodd" clip-rule="evenodd" d="M31.707 53.227L27.227 50.559L13.52 42.375V37.039H18.215L18.188 39.812L29.52 46.641L29.574 42.055L31.867 42.078L31.707 53.227Z" fill="#AECBFA"/>
<path d="M51.36 32.105C51.3604 32.5045 51.2821 32.9001 51.1295 33.2693C50.9769 33.6385 50.753 33.9739 50.4707 34.2565C50.1883 34.5392 49.8531 34.7633 49.4841 34.9163C49.115 35.0693 48.7195 35.148 48.32 35.148C47.5135 35.148 46.74 34.8276 46.1697 34.2573C45.5994 33.687 45.279 32.9135 45.279 32.107C45.279 31.3005 45.5994 30.527 46.1697 29.9567C46.74 29.3864 47.5135 29.066 48.32 29.066C50 29.066 51.36 30.425 51.36 32.105ZM18.719 31.68C18.719 33.36 17.359 34.719 15.679 34.719C14 34.719 12.641 33.359 12.641 31.679C12.641 30 14 28.641 15.68 28.641C17.36 28.641 18.719 30 18.719 31.68ZM35.2 26.64C35.2 28.32 33.84 29.68 32.16 29.68C30.48 29.68 29.121 28.32 29.121 26.64C29.121 24.96 30.481 23.602 32.161 23.602C33.84 23.602 35.199 24.961 35.199 26.641L35.2 26.64ZM34.96 37.332C34.96 38.1382 34.6401 38.9114 34.0705 39.482C33.5009 40.0525 32.7282 40.3737 31.922 40.375C31.115 40.3747 30.3412 40.054 29.7706 39.4834C29.1999 38.9128 28.8793 38.139 28.879 37.332C28.8801 36.5256 29.2011 35.7527 29.7717 35.1829C30.3422 34.613 31.1156 34.293 31.922 34.293C32.7278 34.2938 33.5003 34.6142 34.07 35.184C34.6398 35.7537 34.9592 36.5262 34.96 37.332Z" fill="#AECBFA"/>
<rect x="0.5" y="0.5" width="63" height="63" rx="4.5" stroke="#669DF6"/>
</svg>
