<svg width="64" height="64" viewBox="0 0 64 64" fill="none" xmlns="http://www.w3.org/2000/svg">
<rect x="0.5" y="0.5" width="63" height="63" rx="4.5" fill="white"/>
<path d="M18.668 16L21.332 13.332H5.332L8 16H18.668Z" fill="#AECBFA"/>
<path d="M18.668 16V26.668L21.332 29.332V13.332L18.668 16Z" fill="#669DF6"/>
<path d="M8 16L5.332 13.332V29.332L8 26.668V16Z" fill="#AECBFA"/>
<path d="M8 26.668L5.332 29.332H21.332L18.668 26.668H8Z" fill="#4285F4"/>
<path d="M8 16H18.668V26.668H8V16Z" fill="#AECBFA"/>
<path d="M37.332 16L40 13.332H24L26.668 16H37.332Z" fill="#4285F4"/>
<path d="M37.332 16V26.668L40 29.332V13.332L37.332 16Z" fill="#AECBFA"/>
<path d="M26.668 16L24 13.332V29.332L26.668 26.668V16Z" fill="#4285F4"/>
<path d="M26.668 26.668L24 29.332H40L37.332 26.668H26.668Z" fill="#AECBFA"/>
<path d="M26.668 16H37.332V26.668H26.668V16Z" fill="white"/>
<path d="M56 16L58.668 13.332H42.668L45.332 16H56Z" fill="#4285F4"/>
<path d="M56 16V26.668L58.668 29.332V13.332L56 16Z" fill="#AECBFA"/>
<path d="M45.332 16L42.668 13.332V29.332L45.332 26.668V16Z" fill="#4285F4"/>
<path d="M45.332 26.668L42.668 29.332H58.668L56 26.668H45.332Z" fill="#AECBFA"/>
<path d="M45.332 16H56V26.668H45.332V16Z" fill="white"/>
<path d="M18.668 37.332L21.332 34.668H5.332L8 37.332H18.668Z" fill="#4285F4"/>
<path d="M18.668 37.332V48L21.332 50.668V34.668L18.668 37.332Z" fill="#AECBFA"/>
<path d="M8 37.332L5.332 34.668V50.668L8 48V37.332Z" fill="#4285F4"/>
<path d="M8 48L5.332 50.668H21.332L18.668 48H8Z" fill="#AECBFA"/>
<path d="M8 37.332H18.668V48H8V37.332Z" fill="white"/>
<path d="M37.332 37.332L40 34.668H24L26.668 37.332H37.332Z" fill="#AECBFA"/>
<path d="M37.332 37.332V48L40 50.668V34.668L37.332 37.332Z" fill="#669DF6"/>
<path d="M26.668 37.332L24 34.668V50.668L26.668 48V37.332Z" fill="#AECBFA"/>
<path d="M26.668 48L24 50.668H40L37.332 48H26.668Z" fill="#4285F4"/>
<path d="M26.668 37.332H37.332V48H26.668V37.332ZM56 37.332L58.668 34.668H42.668L45.332 37.332H56Z" fill="#AECBFA"/>
<path d="M56 37.332V48L58.668 50.668V34.668L56 37.332Z" fill="#669DF6"/>
<path d="M45.332 37.332L42.668 34.668V50.668L45.332 48V37.332Z" fill="#AECBFA"/>
<path d="M45.332 48L42.668 50.668H58.668L56 48H45.332Z" fill="#4285F4"/>
<path d="M45.332 37.332H56V48H45.332V37.332Z" fill="#AECBFA"/>
<rect x="0.5" y="0.5" width="63" height="63" rx="4.5" stroke="#669DF6"/>
</svg>
