<svg width="64" height="64" viewBox="0 0 64 64" fill="none" xmlns="http://www.w3.org/2000/svg">
<rect x="0.5" y="0.5" width="63" height="63" rx="4.5" fill="white"/>
<path d="M28.879 42.238H35.094V49.281H28.879V42.238Z" fill="#669DF6"/>
<path d="M49.281 36.988C49.0823 36.9863 48.8858 36.9454 48.7029 36.8676C48.52 36.7899 48.3542 36.6769 48.215 36.535L37.332 25.254L30.027 32.961C29.7649 33.2291 29.4131 33.3909 29.039 33.4155C28.6649 33.44 28.2949 33.3255 28 33.094L22.453 28.614L16.586 36.398C16.301 36.773 15.856 36.992 15.386 36.988H5.33301V41.547C5.33301 42.641 6.21201 43.531 7.31001 43.547H56.69C57.2163 43.5404 57.7188 43.3269 58.0888 42.9526C58.4588 42.5783 58.6665 42.0733 58.667 41.547V36.988H49.281Z" fill="#4285F4"/>
<path d="M14.668 34.027L21.012 25.602C21.25 25.277 21.605 25.066 22 25.012C22.398 24.984 22.797 25.098 23.121 25.332L28.773 29.922L36.238 22.078C36.3756 21.9329 36.5416 21.8178 36.7257 21.7398C36.9098 21.6619 37.1081 21.6228 37.308 21.625C37.711 21.621 38.098 21.785 38.375 22.078L49.922 34.028H58.668V16C58.668 14.91 57.781 14.027 56.691 14.027H7.31001C6.22001 14.027 5.33301 14.91 5.33301 16V34.16L14.668 34.027Z" fill="#669DF6"/>
<path d="M23.922 48.48H40.105C40.547 48.48 40.906 48.84 40.906 49.281V49.309C40.906 49.75 40.546 50.105 40.106 50.105H23.921C23.8161 50.1055 23.7122 50.0853 23.6152 50.0456C23.5181 50.0058 23.4299 49.9472 23.3556 49.8733C23.2812 49.7993 23.2222 49.7114 23.182 49.6145C23.1417 49.5177 23.121 49.4139 23.121 49.309V49.281C23.121 49.0688 23.2053 48.8653 23.3553 48.7153C23.5053 48.5653 23.7088 48.481 23.921 48.481L23.922 48.48Z" fill="#4285F4"/>
<rect x="0.5" y="0.5" width="63" height="63" rx="4.5" stroke="#669DF6"/>
</svg>
