<svg width="60" height="60" viewBox="0 0 60 60" fill="none" xmlns="http://www.w3.org/2000/svg">
<g clip-path="url(#clip0_1_1092)">
<rect width="60" height="60" rx="5" fill="white"/>
<path d="M10 40H50V12.5H10V40ZM32.5 45V50H42.5V55H17.5V50H27.5V45H7.48C7.15171 44.998 6.82704 44.9313 6.52459 44.8036C6.22214 44.676 5.94787 44.4899 5.71748 44.256C5.48709 44.0221 5.30512 43.7451 5.182 43.4407C5.05888 43.1364 4.99703 42.8108 5 42.4825V10.0175C5 8.6275 6.1375 7.5 7.48 7.5H52.52C53.89 7.5 55 8.6225 55 10.0175V42.4825C55 43.8725 53.8625 45 52.52 45H32.5Z" fill="black"/>
<g clip-path="url(#clip1_1_1092)">
<path fill-rule="evenodd" clip-rule="evenodd" d="M6 58.9207C6 56.7072 7.775 54.6994 9.96927 54.4356L29.875 52.0426L49.7807 54.4356C51.9729 54.6992 53.75 56.7006 53.75 58.9207V71.0426H6V58.9207Z" fill="#5B68C0"/>
<path fill-rule="evenodd" clip-rule="evenodd" d="M21.9659 49.082C17.9979 45.3171 15.375 39.2234 15.375 34.1332C15.375 26.125 21.8669 19.6332 29.875 19.6332C37.8831 19.6332 44.375 26.125 44.375 34.1332C44.375 39.2234 41.7521 45.3171 37.7841 49.082V57.9059C37.7841 57.9059 32.4225 59.8155 29.875 59.8155C27.3275 59.8155 21.9659 57.9059 21.9659 57.9059V49.082Z" fill="#FFDD95"/>
<path d="M15.875 40C17.5319 40 18.875 38.6569 18.875 37C18.875 35.3431 17.5319 34 15.875 34C14.2181 34 12.875 35.3431 12.875 37C12.875 38.6569 14.2181 40 15.875 40Z" fill="#FFDD95"/>
<path d="M43.875 40C45.5319 40 46.875 38.6569 46.875 37C46.875 35.3431 45.5319 34 43.875 34C42.2181 34 40.875 35.3431 40.875 37C40.875 38.6569 42.2181 40 43.875 40Z" fill="#FFDD95"/>
<path fill-rule="evenodd" clip-rule="evenodd" d="M43.875 22.5C43.875 19.4624 41.4171 17 38.374 17H11.875V22.5C11.875 25.5376 14.3329 28 17.376 28H43.875V22.5Z" fill="#FFAF40"/>
<path d="M310.069 29.0521C310.65 28.4616 310.643 27.5119 310.052 26.9309L300.43 17.4619C299.839 16.8808 298.89 16.8885 298.309 17.4789C297.728 18.0694 297.735 19.0191 298.326 19.6002L306.879 28.017L298.462 36.5702C297.881 37.1607 297.888 38.1104 298.479 38.6915C299.069 39.2725 300.019 39.2649 300.6 38.6744L310.069 29.0521ZM60.012 31.5L309.012 29.5L308.988 26.5L59.988 28.5L60.012 31.5Z" fill="black"/>
<path d="M164.13 23.9863C164.675 23.3621 164.61 22.4146 163.986 21.8699L153.815 12.9932C153.191 12.4484 152.243 12.5128 151.699 13.137C151.154 13.7611 151.218 14.7087 151.842 15.2534L160.884 23.1438L152.993 32.1849C152.448 32.8091 152.513 33.7567 153.137 34.3014C153.761 34.8461 154.709 34.7817 155.253 34.1575L164.13 23.9863ZM60.1017 31.4965L163.102 24.4965L162.898 21.5035L59.8983 28.5035L60.1017 31.4965Z" fill="black"/>
</g>
</g>
<rect x="0.5" y="0.5" width="59" height="59" rx="4.5" stroke="#669DF6"/>
<defs>
<clipPath id="clip0_1_1092">
<rect width="60" height="60" rx="5" fill="white"/>
</clipPath>
<clipPath id="clip1_1_1092">
<rect width="64" height="64" fill="white" transform="translate(5 8)"/>
</clipPath>
</defs>
</svg>
